<svg width="400" height="387" viewBox="0 0 400 387" fill="none" xmlns="http://www.w3.org/2000/svg">
<path fill-rule="evenodd" clip-rule="evenodd" d="M385.533 265.893L375.711 250.23C370.269 255.388 363.607 258.335 357.112 258.335C354.129 258.335 352.556 257.971 346.06 256.313C339.572 254.464 335.006 253.912 329.923 253.912C306.936 253.912 292.027 266.445 292.027 285.796C292.027 299.799 298.344 308.462 311.328 311.964C306.064 313.255 300.272 316.02 297.642 319.156C295.711 321.366 294.837 324.309 294.837 327.809C294.837 330.766 295.539 333.343 296.588 335.554C297.814 337.581 299.57 339.24 301.678 340.158C305.882 341.817 312.728 342.922 323.253 343.11C328.695 343.11 332.028 343.295 333.256 343.295C339.749 343.664 343.079 344.764 345.538 346.058C347.992 347.533 349.747 350.851 349.747 354.533C349.747 358.221 347.466 361.906 344.134 364.119C340.977 366.33 335.886 367.254 329.22 367.254C318.341 367.254 312.377 363.197 312.377 355.639C312.377 352.321 312.728 351.582 313.429 349.557H291.675C290.8 351.398 289.574 353.978 289.574 359.142C289.574 365.594 292.027 371.12 296.939 375.913C305.013 383.839 318.17 386.047 330.976 386.047C345.007 386.047 358.521 382.733 366.412 373.882C371.321 368.354 373.602 362.273 373.602 354.351C373.602 345.874 371.15 339.422 365.887 334.264C359.565 328.178 352.379 325.966 338.695 325.784L326.059 325.602C323.606 325.602 322.206 324.684 322.206 323.391C322.206 320.809 325.533 318.596 331.499 315.651C333.256 315.833 333.957 315.833 335.006 315.833C354.129 315.833 368.166 304.04 368.166 287.825C368.166 281.556 366.412 276.768 362.899 272.346C365.887 272.71 366.762 272.897 369.043 272.897C375.531 272.897 380.443 270.869 385.533 265.893V265.893ZM400 174.428C400 163.83 393.452 154.012 382.317 145.946C383.322 149.185 383.886 152.477 383.886 155.834C383.886 186.181 341.427 212.146 281.233 222.897C288.041 223.663 295.103 224.082 302.366 224.082C356.289 224.082 400 201.85 400 174.428V174.428ZM365.301 157.921C365.301 187.045 300.026 210.652 219.502 210.652C138.982 210.652 73.7113 187.045 73.7113 157.921C73.7113 148.748 80.1881 140.126 91.5765 132.618C89.8159 135.838 88.8822 139.169 88.8822 142.583C88.8822 169.486 146.294 191.295 217.12 191.295C287.946 191.295 345.364 169.486 345.364 142.583C345.364 137.496 343.295 132.584 339.481 127.968C355.745 136.478 365.301 146.795 365.301 157.921ZM89.8196 111.304C60.4091 118.476 40.4313 132.52 40.4313 148.671C40.4313 158.669 48.094 167.849 60.8895 175.101C57.0464 168.964 54.9545 162.507 54.9545 155.834C54.9545 139.036 67.9916 123.586 89.8196 111.304ZM377.422 63.9538C374.717 60.7047 371.012 60.715 368.088 63.3573C365.265 67.0915 365.185 69.7488 367.188 71.812C369.326 74.018 373.757 75.9187 376.948 73.3914C380.14 70.8536 380.128 67.2018 377.422 63.9538V63.9538ZM340.376 76.0614C349.502 63.3596 366.963 85.8204 347.171 88.9467C339.251 90.1987 325.878 98.8439 320.14 112.49C312.036 132.685 315.543 147.632 301.612 156.622C271.903 175.778 180.378 183.006 140.967 158.432C110.074 139.17 120.674 108.632 32.3081 41.3303C20.7521 32.5344 34.4383 23.1956 43.094 29.1729C51.7486 35.157 43.8266 36.7457 61.2835 54.1795C96.5441 89.3795 96.1894 57.7339 101.758 69.7037C113.467 94.8751 139.298 120.226 139.298 120.226C165.166 137.029 185.824 140.702 223.983 114.936C248.181 98.5967 238.283 140.924 297.629 110.419C319.272 99.2905 318.372 106.668 340.376 76.0614H340.376ZM82.879 43.7708C81.3836 41.6703 76.9383 40.7037 73.9651 43.6896C70.9964 46.6752 72.4568 49.6273 74.1731 51.4015C76.636 53.9428 80.8104 53.734 83.2929 52.3531C85.7871 50.9758 85.2628 47.1208 82.879 43.7708ZM21.529 20.4071C23.4672 18.2835 25.915 14.2661 21.7104 6.57616C18.6417 0.946935 8.49408 -1.35292 4.91262 0.793735C1.34273 2.94761 -3.02469 11.2596 2.95557 14.9172C10.6615 19.6365 15.7126 26.7685 21.529 20.4071ZM387.389 9.96327C384.676 6.02852 378.948 6.74091 373.278 10.8476C367.605 14.9496 368.678 22.7488 370.553 24.5647C373.843 27.7582 382.612 25.6023 384.655 23.315C389.917 17.441 390.101 13.8972 387.389 9.96327V9.96327ZM354.745 34.9413C362.866 31.1199 375.637 43.5409 357.155 52.8649C330.739 66.198 327.939 82.7397 311.251 93.2575C283.186 110.948 291.773 93.9724 246.627 87.5473C229.24 85.0722 223.647 104.429 210.074 98.8346C178.784 85.9365 156.929 88.4059 136.661 104.857C129.325 101.628 121.649 89.1601 118.641 84.1612C126.857 76.1298 123.539 62.7074 118.899 55.347C114.265 47.9866 108.65 50.0753 102.487 43.3032C96.3183 36.5403 104.811 18.8881 112.71 32.4486C142.303 83.2606 161.732 62.1249 185.906 59.0939C209.104 56.1872 229.612 68.7973 235.899 33.0788C236.932 27.2407 242.631 25.8435 243.213 35.4982C243.792 45.1597 247.424 68.6847 260.18 71.7205C272.932 74.7525 283.058 68.7393 286.044 65.4019C289.031 62.0645 290.595 62.5497 291.906 70.8316C293.222 79.1202 296.456 90.5665 314.364 77.8161C350.991 51.7347 340.51 41.6437 354.745 34.9413V34.9413ZM245.881 11.0728C246 6.89865 244.1 4.28208 239.974 4.4293C235.85 4.579 234.371 6.65039 234.505 10.6794C235.534 18.3056 236.818 18.1233 239.554 18.8276C242.291 19.5332 245.763 15.2432 245.881 11.0728V11.0728ZM99.0427 18.2406C100.839 15.9801 101.011 13.0048 98.6276 9.6513C97.1346 7.5531 90.1486 6.1143 87.1834 9.09891C84.209 12.0868 86.9148 16.7795 89.2287 17.4909C93.5137 18.8081 95.417 22.7929 99.0427 18.2406V18.2406ZM343.959 285.978C343.959 294.642 338.868 299.43 329.571 299.43C321.324 299.43 315.71 295.564 315.71 285.978C315.71 277.133 320.8 271.973 329.747 271.973C338.695 271.973 343.959 277.133 343.959 285.978ZM276.589 338.871C284.316 329.653 287.817 318.596 287.817 302.381C287.817 287.084 284.661 276.768 277.471 267.916C269.748 258.335 259.753 253.73 246.942 253.73C222.735 253.73 206.594 273.444 206.594 303.121C206.594 332.788 222.557 351.956 246.942 351.956C260.801 351.956 269.748 346.981 276.589 338.871ZM262.207 302.198C262.207 324.499 257.824 334.076 247.65 334.076C243.083 334.076 237.825 331.501 235.717 326.342C233.789 321.542 232.73 313.434 232.73 302.565C232.73 293.166 233.61 286.533 235.189 281.556C237.117 275.66 241.678 271.973 247.293 271.973C251.502 271.973 255.186 273.816 257.468 276.95C260.626 281.186 262.207 289.478 262.207 302.198ZM38.4683 366.877L49.8637 380.147C60.9194 375.724 74.7787 365.779 78.2858 350.115C79.5137 344.951 80.0368 341.634 80.0368 325.042V222.507H55.1322V327.809C55.1322 341.634 54.6065 346.792 52.6741 351.398C50.3949 356.56 44.7752 362.824 38.4683 366.877V366.877ZM96.0195 222.216H93.4612V349.927H118.021V293.347H149.073V272.346H118.021V243.037H156.788L158.293 231.887C134.997 230.109 113.826 226.368 96.0195 222.216V222.216ZM177.667 253.36C179.774 257.235 180.996 261.47 181.351 266.816C184.687 262.023 190.301 257.047 194.684 254.83C196.618 253.911 199.772 253.36 202.405 253.36C205.911 253.36 207.489 253.73 211.173 255.388L204.683 277.133C202.405 275.845 200.475 275.291 197.844 275.291C192.58 275.291 187.843 277.873 183.455 283.214V349.927H159.95V286.896C159.95 274.18 158.545 264.599 156.616 259.26L177.667 253.36V253.36Z" fill="#40BE46"/>
</svg>
