<?xml version="1.0" encoding="UTF-8" standalone="no"?>
<svg
   width="370"
   height="370"
   viewBox="0 0 370 370"
   fill="none"
   version="1.1"
   id="svg1"
   xmlns="http://www.w3.org/2000/svg"
   xmlns:svg="http://www.w3.org/2000/svg">
  <g
     id="g1"
     transform="matrix(3.7,0,0,3.7,-222,-222)">
    <path
       fill-rule="evenodd"
       clip-rule="evenodd"
       d="m 109.5,100 c -9.113,0 -16.5,-7.3873 -16.5,-16.5 0,-9.1127 7.387,-16.5 16.5,-16.5 9.113,0 16.5,7.3873 16.5,16.5 0,9.1127 -7.387,16.5 -16.5,16.5 z M 109.5,70 C 103.148,70 98,75.1487 98,81.5 c 0,6.3513 5.148,11.5 11.5,11.5 6.351,0 11.5,-5.1487 11.5,-11.5 0,-6.3513 -5.149,-11.5 -11.5,-11.5 z"
       fill="#129B7C"
       id="path1" />
    <path
       fill-rule="evenodd"
       clip-rule="evenodd"
       d="M 145.938,95.9617 C 142.4,86.3427 132.275,80.9244 122.656,84.4614 113.037,87.9985 107.618,98.1243 111.156,107.743 114.693,117.362 124.819,122.781 134.438,119.244 144.057,115.706 149.475,105.581 145.938,95.9617 Z M 119.169,89.2217 c 6.12,-2.2581 12.932,0.8641 15.191,6.9842 2.258,6.1201 -0.864,12.9321 -6.984,15.1911 -6.12,2.258 -12.932,-0.865 -15.19,-6.985 -2.259,-6.1202 0.864,-12.9321 6.983,-15.1903 z"
       fill="#129B7C"
       id="path2" />
    <path
       fill-rule="evenodd"
       clip-rule="evenodd"
       d="m 82.5831,95.9617 c 3.5381,9.6193 13.6639,15.0383 23.2829,11.5003 9.619,-3.538 15.037,-13.6638 11.499,-23.2831 -3.537,-9.6193 -13.663,-15.0376 -23.282,-11.4996 -9.619,3.537 -15.038,13.6638 -11.4999,23.2824 z m 26.7699,6.7403 c -6.12,2.258 -12.932,-0.865 -15.191,-6.985 -2.258,-6.1202 0.865,-12.9321 6.985,-15.1903 6.12,-2.2581 12.932,0.8641 15.19,6.9842 2.258,6.1201 -0.864,12.9321 -6.984,15.1911 z"
       fill="#129B7C"
       id="path3" />
  </g>
</svg>