<svg xmlns="http://www.w3.org/2000/svg" xmlns:xlink="http://www.w3.org/1999/xlink" version="1.1" width="256" height="256" viewBox="0 0 256 256" xml:space="preserve">

<defs>
</defs>
<g style="stroke: none; stroke-width: 0; stroke-dasharray: none; stroke-linecap: butt; stroke-linejoin: miter; stroke-miterlimit: 10; fill: none; fill-rule: nonzero; opacity: 1;" transform="translate(1.4065934065934016 1.4065934065934016) scale(2.81 2.81)" >
	<path d="M 86 77.455 H 54.645 c -2.209 0 -4 -1.791 -4 -4 s 1.791 -4 4 -4 H 86 c 2.209 0 4 1.791 4 4 S 88.209 77.455 86 77.455 z" style="stroke: none; stroke-width: 1; stroke-dasharray: none; stroke-linecap: butt; stroke-linejoin: miter; stroke-miterlimit: 10; fill: rgb(75,88,108); fill-rule: nonzero; opacity: 1;" transform=" matrix(1 0 0 1 0 0) " stroke-linecap="round" />
	<path d="M 53.897 20.636 H 4 c -2.209 0 -4 -1.791 -4 -4 s 1.791 -4 4 -4 h 49.897 c 2.209 0 4 1.791 4 4 S 56.106 20.636 53.897 20.636 z" style="stroke: none; stroke-width: 1; stroke-dasharray: none; stroke-linecap: butt; stroke-linejoin: miter; stroke-miterlimit: 10; fill: rgb(75,88,108); fill-rule: nonzero; opacity: 1;" transform=" matrix(1 0 0 1 0 0) " stroke-linecap="round" />
	<path d="M 86 49.046 H 31.428 c -2.209 0 -4 -1.791 -4 -4 s 1.791 -4 4 -4 H 86 c 2.209 0 4 1.791 4 4 S 88.209 49.046 86 49.046 z" style="stroke: none; stroke-width: 1; stroke-dasharray: none; stroke-linecap: butt; stroke-linejoin: miter; stroke-miterlimit: 10; fill: rgb(75,88,108); fill-rule: nonzero; opacity: 1;" transform=" matrix(1 0 0 1 0 0) " stroke-linecap="round" />
	<path d="M 36.102 77.455 H 4 c -2.209 0 -4 -1.791 -4 -4 s 1.791 -4 4 -4 h 32.102 c 2.209 0 4 1.791 4 4 S 38.311 77.455 36.102 77.455 z" style="stroke: none; stroke-width: 1; stroke-dasharray: none; stroke-linecap: butt; stroke-linejoin: miter; stroke-miterlimit: 10; fill: rgb(75,88,108); fill-rule: nonzero; opacity: 1;" transform=" matrix(1 0 0 1 0 0) " stroke-linecap="round" />
	<path d="M 13.633 49.046 H 4 c -2.209 0 -4 -1.791 -4 -4 s 1.791 -4 4 -4 h 9.633 c 2.209 0 4 1.791 4 4 S 15.842 49.046 13.633 49.046 z" style="stroke: none; stroke-width: 1; stroke-dasharray: none; stroke-linecap: butt; stroke-linejoin: miter; stroke-miterlimit: 10; fill: rgb(75,88,108); fill-rule: nonzero; opacity: 1;" transform=" matrix(1 0 0 1 0 0) " stroke-linecap="round" />
	<path d="M 86 20.636 H 71.866 c -2.209 0 -4 -1.791 -4 -4 s 1.791 -4 4 -4 H 86 c 2.209 0 4 1.791 4 4 S 88.209 20.636 86 20.636 z" style="stroke: none; stroke-width: 1; stroke-dasharray: none; stroke-linecap: butt; stroke-linejoin: miter; stroke-miterlimit: 10; fill: rgb(75,88,108); fill-rule: nonzero; opacity: 1;" transform=" matrix(1 0 0 1 0 0) " stroke-linecap="round" />
	<path d="M 50.47 82.352 H 39.53 c -1.893 0 -3.428 -1.535 -3.428 -3.428 v -10.94 c 0 -1.893 1.535 -3.428 3.428 -3.428 h 10.94 c 1.893 0 3.428 1.535 3.428 3.428 v 10.94 C 53.898 80.818 52.363 82.352 50.47 82.352 z" style="stroke: none; stroke-width: 1; stroke-dasharray: none; stroke-linecap: butt; stroke-linejoin: miter; stroke-miterlimit: 10; fill: rgb(255,40,40); fill-rule: nonzero; opacity: 1;" transform=" matrix(1 0 0 1 0 0) " stroke-linecap="round" />
	<path d="M 27.684 54.711 H 16.541 c -1.928 0 -3.491 -1.563 -3.491 -3.491 V 40.076 c 0 -1.928 1.563 -3.491 3.491 -3.491 h 11.143 c 1.928 0 3.491 1.563 3.491 3.491 V 51.22 C 31.176 53.148 29.613 54.711 27.684 54.711 z" style="stroke: none; stroke-width: 1; stroke-dasharray: none; stroke-linecap: butt; stroke-linejoin: miter; stroke-miterlimit: 10; fill: rgb(255,184,46); fill-rule: nonzero; opacity: 1;" transform=" matrix(1 0 0 1 0 0) " stroke-linecap="round" />
	<path d="M 68.698 25.774 H 57.554 c -1.928 0 -3.491 -1.563 -3.491 -3.491 V 11.139 c 0 -1.928 1.563 -3.491 3.491 -3.491 h 11.143 c 1.928 0 3.491 1.563 3.491 3.491 v 11.143 C 72.189 24.211 70.626 25.774 68.698 25.774 z" style="stroke: none; stroke-width: 1; stroke-dasharray: none; stroke-linecap: butt; stroke-linejoin: miter; stroke-miterlimit: 10; fill: rgb(69,160,65); fill-rule: nonzero; opacity: 1;" transform=" matrix(1 0 0 1 0 0) " stroke-linecap="round" />
</g>
</svg>